<svg height='100px' width='100px'  fill="#063d63" xmlns="http://www.w3.org/2000/svg" xmlns:xlink="http://www.w3.org/1999/xlink" version="1.1" x="0px" y="0px" viewBox="0 0 48 48" style="enable-background:new 0 0 48 48;" xml:space="preserve"><path d="M5.73,27.18C4.92,28.7,4.5,30.39,4.5,32.1c0,4.97,3.53,9.3,8.4,10.29c0.15,0.03,0.3-0.01,0.42-0.1  c0.12-0.1,0.18-0.24,0.18-0.39v-7.8c0-1.93,1.57-3.5,3.5-3.5s3.5,1.57,3.5,3.5v7.8c0,0.15,0.07,0.29,0.18,0.39  c0.09,0.07,0.2,0.11,0.32,0.11c0.03,0,0.07,0,0.1-0.01c4.87-0.99,8.4-5.32,8.4-10.29c0-1.71-0.43-3.4-1.24-4.92  c3.73-2.16,5.77-6.41,5.11-10.72c-0.67-4.39-4.2-7.97-8.59-8.7C22.02,7.29,19.27,7.91,17,9.5c-2.27-1.59-5.02-2.21-7.78-1.75  c-4.39,0.73-7.92,4.31-8.59,8.7C-0.03,20.77,2.01,25.01,5.73,27.18z M1.61,16.6c0.61-3.97,3.8-7.21,7.77-7.87  c2.61-0.43,5.22,0.2,7.32,1.78c0.18,0.13,0.42,0.13,0.6,0c2.1-1.58,4.7-2.21,7.32-1.78c3.97,0.66,7.16,3.9,7.77,7.87  c0.62,4.07-1.4,8.06-5.04,9.94c-0.12,0.06-0.21,0.17-0.25,0.31c-0.04,0.13-0.02,0.28,0.05,0.39c0.88,1.48,1.35,3.16,1.35,4.86  c0,4.29-2.91,8.05-7,9.17V34.1c0-2.48-2.02-4.5-4.5-4.5s-4.5,2.02-4.5,4.5v7.17c-4.09-1.11-7-4.87-7-9.17c0-1.7,0.47-3.38,1.35-4.86  c0.07-0.12,0.09-0.26,0.05-0.39c-0.04-0.13-0.13-0.24-0.25-0.31C3.02,24.66,0.99,20.67,1.61,16.6z"></path><path d="M47,11.6h-2h-3.5V6.1c0-0.28-0.22-0.5-0.5-0.5s-0.5,0.22-0.5,0.5v5.5H35c-0.28,0-0.5,0.22-0.5,0.5s0.22,0.5,0.5,0.5h5.5v3.5  v2c0,0.28,0.22,0.5,0.5,0.5s0.5-0.22,0.5-0.5v-2v-3.5H45h2c0.28,0,0.5-0.22,0.5-0.5S47.27,11.6,47,11.6z"></path></svg>