<svg height='100px' width='100px'  fill="#063d63" xmlns="http://www.w3.org/2000/svg" data-name="Layer 1" viewBox="0 0 100 100" x="0px" y="0px"><title>dental-emergency</title><path d="M83.85,19.75c-.83-5.81-3-10-6.41-12.36s-8.13-3-13.92-1.76l-2.44.53A50.37,50.37,0,0,1,50,7.79,50.38,50.38,0,0,1,38.92,6.17l-2.44-.53C30.7,4.39,26,5,22.57,7.39S17,13.93,16.15,19.75c-1.18,8.24,6,25.42,7.3,28.54-1.61,17.55-.95,30.89,2,39.65.1.3,2.4,7.07,6.52,7.07l.37,0c3.6-.36,5.74-5.32,7.15-16.61,1.65-13.23,3.74-20,10.53-20s8.88,6.77,10.53,20C61.94,89.66,64.08,94.62,67.68,95l.37,0c4.11,0,6.42-6.77,6.52-7.07,2.92-8.76,3.59-22.1,2-39.65C77.88,45.17,85,28,83.85,19.75ZM72.66,48.15c1.6,17,1,30.35-1.75,38.56-.71,2.14-2.23,4.31-2.82,4.44,0,0-2.2-1-3.73-13.26-1.3-10.38-2.92-23.29-14.3-23.38h-.12c-11.39.09-13,13-14.3,23.38C34.11,90.13,31.95,91.13,32,91.14c-.66-.12-2.18-2.29-2.89-4.43-2.74-8.22-3.34-21.55-1.75-38.56l0-.5-.2-.46C24.86,41.91,19,26.77,20,20.29c.68-4.78,2.25-8,4.8-9.74S31,8.39,35.68,9.4l2.41.53a53.45,53.45,0,0,0,11.85,1.72h.12A53.41,53.41,0,0,0,61.91,9.93l2.41-.53c4.7-1,8.37-.62,10.91,1.15s4.12,5,4.8,9.74c.93,6.48-4.89,21.62-7.21,26.9l-.2.46Z"></path><path d="M50,45.23A13.25,13.25,0,1,1,63.25,32,13.27,13.27,0,0,1,50,45.23Zm0-24.7A11.45,11.45,0,1,0,61.45,32,11.46,11.46,0,0,0,50,20.53Z"></path><polygon points="58.19 29.31 52.67 29.31 52.67 23.79 47.33 23.79 47.33 29.31 41.81 29.31 41.81 34.65 47.33 34.65 47.33 40.17 52.67 40.17 52.67 34.65 58.19 34.65 58.19 29.31"></polygon></svg>