<svg height='100px' width='100px'  fill="#063d63" xmlns="http://www.w3.org/2000/svg" data-name="Layer 1" viewBox="0 0 100 100" x="0px" y="0px"><title>Artboard 30</title><path d="M90.81,66.85l-8.74-5.42V22.58A7.09,7.09,0,0,0,75,15.5H60a7.06,7.06,0,0,0-4.75,1.83l-4,3.64L50,19.73a4.92,4.92,0,0,0-6.95,0L40.45,22.3l.48,1A22.62,22.62,0,0,0,51.26,33.59l1,.48L54.8,31.5a4.92,4.92,0,0,0,0-6.95L53.35,23.1l3.91-3.54A4.07,4.07,0,0,1,60,18.5H75a4.08,4.08,0,0,1,4.08,4.08v37l-4.29-2.66a8.5,8.5,0,0,0-4.48-1.28H55.24V50h7.83a1.5,1.5,0,0,0,0-3H44.4a1.5,1.5,0,0,0,0,3h7.83v5.63H45.29a5.48,5.48,0,0,1-3-.86L16.95,38.61A4.61,4.61,0,0,0,10.58,40l-.42.66a4.62,4.62,0,0,0,1.43,6.35l26.81,17A8.49,8.49,0,0,0,43,65.4h1.12V78.5H39.24a4.5,4.5,0,0,0-4.5,4.5v1a4.5,4.5,0,0,0,4.5,4.5h29a4.5,4.5,0,0,0,4.5-4.5V83a4.5,4.5,0,0,0-4.5-4.5H63.4V65.4h5.76a5.49,5.49,0,0,1,2.86.8l14,8.5a4.61,4.61,0,0,0,4.83-7.85ZM52.68,29.38l-1,1a19.54,19.54,0,0,1-7.53-7.53l1-1a1.92,1.92,0,0,1,2.71,0l4.83,4.83A1.92,1.92,0,0,1,52.68,29.38ZM68.24,81.5a1.5,1.5,0,0,1,1.5,1.5v1a1.5,1.5,0,0,1-1.5,1.5h-29a1.5,1.5,0,0,1-1.5-1.5V83a1.5,1.5,0,0,1,1.5-1.5h29Zm-21.17-3V65.4H60.4V78.5Zm42.81-7.14a1.61,1.61,0,0,1-2.33.78l-14-8.5a8.5,8.5,0,0,0-4.42-1.24H43A5.5,5.5,0,0,1,40,61.55l-26.81-17a1.61,1.61,0,0,1-.5-2.22l.42-.66a1.61,1.61,0,0,1,2.22-.5L40.72,57.3a8.48,8.48,0,0,0,4.56,1.33h25a5.5,5.5,0,0,1,2.9.83l6.06,3.76a1.49,1.49,0,0,0,1.26.78l8.71,5.41A1.61,1.61,0,0,1,89.88,71.36Z"></path></svg>